<svg viewBox="0 0 400 400" xmlns="http://www.w3.org/2000/svg" height="400" width="400"><path d="M251.12 104.434c-1.66 -2.4 -3.248 -4.908 -5.026 -7.2 -1.896 -2.488 -5.264 -2.322 -8.108 -2.678 -6.308 -0.782 -32.53 -3.6 -34.308 -3.8a21.212 21.212 0 0 0 -5.05 -0.166c-3.39 0.45 -6.282 2.726 -9.128 4.434 -8.26 4.976 -8.026 4.696 -9.152 5.616 -2.488 2.04 -2.726 5.62 -3.4 8.56 -2.136 9.612 -3.23 14.356 -3.746 18.422 -0.096 0.688 1 0.782 1.186 0.166 1.682 -5.974 2.964 -12.068 4.338 -18.114 1.21 -5.22 0.818 -6.56 4.458 -8.702q4.624 -2.772 9.294 -5.548c3.874 -2.31 4.874 -3.4 9.578 -2.916 3.462 0.38 35.304 4.054 38.338 4.458 1.588 0.214 3.034 0.26 4.078 1.612 0.57 0.75 6.238 9.042 6.97 10.148 2.11 3.164 2.932 3.916 2.49 7.066 -0.546 3.864 -23.544 139.742 -23.638 140.144 -0.284 1.258 1.66 1.8 1.944 0.546 2.324 -10.788 4.2 -21.67 6.07 -32.53 2.916 -16.762 17.046 -102.968 17.64 -107.118 0.8 -5.024 -0.18 -5.654 -4.828 -12.4Z" fill="#1c2733" stroke-width="2"></path><path d="M242.846 114.156c0.736 -0.094 1.28 -1.186 0.426 -1.6a20.504 20.504 0 0 0 -5.452 -1.28c-1.944 -0.308 -45.712 -6.662 -47.892 -6.922a31.8 31.8 0 0 0 -6.71 -0.522 0.714 0.714 0 0 0 -0.19 1.4c2.622 0.92 2.416 0.468 53.25 8.2a24.508 24.508 0 0 0 6.568 0.724Z" fill="#1c2733" stroke-width="2"></path><path d="M222.504 127.03c-0.186 -1.282 -0.238 -2.562 -1.566 -3.13a19.484 19.484 0 0 0 -4.528 -0.972 42.6 42.6 0 0 0 -9.65 -0.76 4.326 4.326 0 0 0 -2.4 1.542 168.874 168.874 0 0 0 -12 19.726 0.954 0.954 0 0 0 0.332 1.28 45.018 45.018 0 0 0 16.026 4.624c-0.286 0.57 0.46 -1.038 -3.864 28.854 -3.8 25.934 -3.816 25.954 -3.676 28.4a0.6 0.6 0 0 0 1.162 0.166 37.174 37.174 0 0 0 1.47 -7.4c5.282 -37.318 5.946 -42.2 6.45 -49.67v-0.166c1.612 0.19 3.2 0.332 4.812 0.474 -0.03 3.446 1.294 11.142 1.874 15.696a2.046 2.046 0 0 0 0.568 3.768 1.77 1.77 0 0 0 2.324 -1.326 1.884 1.884 0 0 0 -1.304 -2.822c-0.894 -5.174 -1.638 -13.138 -2.062 -15.2a21.466 21.466 0 0 0 10.4 -1.162 1.104 1.104 0 0 0 0.498 -1.2 124.014 124.014 0 0 1 -4.866 -20.722ZM217.6 148.084c-2.704 -0.16 -5.43 -0.4 -8.132 -0.712a45.094 45.094 0 0 1 -15.032 -3.864 204.662 204.662 0 0 1 11.428 -18.944c0.142 -0.214 0.64 -0.248 1.182 -0.27a37.8 37.8 0 0 1 10.814 1.028 8.35 8.35 0 0 1 1.898 0.4c0.6 0.284 0.212 -0.12 0.496 0.426a118.4 118.4 0 0 0 4.814 21.2 17.964 17.964 0 0 1 -7.468 0.736Z" fill="#1c2733" stroke-width="2"></path><path d="M166.146 162.286c3.622 2.248 3.516 2.534 13.752 8.486a22.672 22.672 0 0 1 5.762 3.96 18 18 0 0 1 2.75 7.114c14.4 50.736 13.224 47.122 14.178 49.172 0.356 0.758 1.73 0.4 1.612 -0.426a51.782 51.782 0 0 0 -2.04 -8c-13.49 -47.014 -12.532 -45.644 -14.034 -48.06 -1.662 -2.678 -4.24 -3.9 -12.732 -8.8 -2.822 -1.612 -5.714 -3.01 -8.584 -4.504a0.618 0.618 0 0 0 -0.664 1.058Z" fill="#1c2733" stroke-width="2"></path><path d="M182.956 176.084c-8.386 1.644 -58.348 11.498 -61.976 12.186 0 -7.33 0.772 -13.652 0.712 -19.276 0 -0.8 -1.352 -1.066 -1.47 -0.188a175.568 175.568 0 0 0 -1.304 19.868c-12.85 2.4 -56.856 9.886 -65.864 11.83 -0.854 0.19 -0.688 1.66 0.212 1.566 7.752 -0.982 61.03 -10.486 65.936 -11.382 0.696 3.938 3.6 8.66 9.886 29.376a26.446 26.446 0 0 0 2.134 6.26 0.85 0.85 0 0 0 1.566 -0.426 19.016 19.016 0 0 0 -1.162 -5.36c-4.9 -17.04 -9.384 -26.708 -10.29 -30.252 14.146 -2.6 47.75 -8.858 62.2 -12.186 1.294 -0.332 0.726 -2.272 -0.58 -2.016Z" fill="#1c2733" stroke-width="2"></path><path d="M156.876 253.448c2.378 -6.018 4.372 -9.822 4.67 -12.4 0.072 -0.736 -1.042 -0.972 -1.374 -0.38 -0.934 1.654 -0.628 1.658 -3.532 8.4a13.936 13.936 0 0 0 -2.988 -4.056c-1.566 -1.826 -3.106 -3.674 -4.67 -5.5 0 -0.338 4.618 -9.028 5.334 -9.982a2.696 2.696 0 0 1 2.086 -1.018 40.854 40.854 0 0 1 10.504 0c3.414 0.308 11.142 1.114 11.57 1.16a47.084 47.084 0 0 0 -1.922 9.248c-3.8 -0.142 -7.61 -0.308 -11.4 -0.618a9.44 9.44 0 0 1 -3.4 -0.426c-0.8 -0.426 -1.352 -1.73 -1.848 -2.514a39.98 39.98 0 0 0 -3.582 -5.216c-0.64 -0.71 -1.54 0.2 -1.2 0.95a44.012 44.012 0 0 0 3.58 5.784 9.244 9.244 0 0 0 1.73 2.4 4.152 4.152 0 0 0 2.182 0.618c7.4 0.732 13.976 0.924 13.774 0.924a50.49 50.49 0 0 0 -0.094 5.69 0.6 0.6 0 0 0 1.186 0c0.166 -1.872 0.378 -3.746 0.616 -5.642 3.96 0.142 13.134 0.522 13.8 0.544 -0.554 4.438 -0.958 5.026 -0.71 6.356a0.76 0.76 0 0 0 1.374 0.188 7.8 7.8 0 0 0 0.83 -3.034c0.05 -0.318 0.498 -3.242 0.498 -3.366 6.2 0.442 7.36 0.886 9.91 0.782a0.718 0.718 0 0 0 0.19 -1.4 47.294 47.294 0 0 0 -9.886 -1.256 76.826 76.826 0 0 0 0.522 -8.014 16.728 16.728 0 0 1 11.6 5.288c3.38 2.978 3.276 3.982 3.84 7.87 0.4 2.8 0.758 5.62 1.09 8.418 0.736 0 1.47 0 2.182 0.024a392.318 392.318 0 0 0 -0.972 -7.4c-0.558 -3.964 -0.442 -6.178 -3.272 -9.128 -5.37 -5.548 -8.5 -6.574 -14.6 -7.232a12.256 12.256 0 0 0 -2.182 -6.164 6.018 6.018 0 0 0 -4.766 -2.584 13.1 13.1 0 0 0 -0.474 -2.916 6.302 6.302 0 0 0 -6.6 -4.6c-6.542 0.308 -10.764 7.54 -11.664 13.42 -0.19 -0.024 -0.38 -0.024 -0.57 -0.048a51.09 51.09 0 0 0 -11.26 -0.166c-4.096 0.52 -4.116 1.18 -6.9 6.828a148.968 148.968 0 0 0 -2.3 4.79 18.452 18.452 0 0 0 -3.178 -3.438c-1.658 -1.232 -4.172 -1.044 -6.14 -1.21 -2.418 -0.212 -15.908 -1.35 -20.248 -1.73 1.988 -4.36 4.844 -11.158 2.372 -15.434a3.166 3.166 0 0 0 -3.368 -1.684 5.326 5.326 0 0 0 -3.224 3.012 21.016 21.016 0 0 0 -1.47 3.532c-0.636 -2.016 -1.846 -4.956 -3.864 -5.548a3.166 3.166 0 0 0 -3.438 1.47 6.67 6.67 0 0 0 -0.45 4.742 41.4 41.4 0 0 0 2.3 8.986c-12 -0.87 -11.848 -1.564 -18.2 0.876 -16.934 6.4 -15.352 4.834 -16.454 10.1 -0.498 2.68 -2.228 12.068 -2.584 14.108 21.048 -1.03 74.128 -2.216 87.044 -2.404Zm30.8 -30.846c2.956 0.152 4.514 3.742 4.86 6.686 -0.646 -0.068 -4.504 -0.58 -5.144 -0.664a29.634 29.634 0 0 0 0.282 -6.024Zm5 8.8a79.38 79.38 0 0 1 -0.522 8.156c-1.762 -0.16 -12.256 -0.512 -13.752 -0.57a50.964 50.964 0 0 1 2.016 -9.104c3.112 0.352 12.058 1.486 12.26 1.516Zm-7.09 -3.012c-1.446 -0.166 -2.868 -0.356 -4.314 -0.498a10.376 10.376 0 0 1 4.432 -4.86c0.002 1.94 -0.14 3.884 -0.116 5.354Zm-11.878 -8.914a9.884 9.884 0 0 1 6.236 -4.316c4.268 -0.64 5.452 2.348 5.714 5.856a11.76 11.76 0 0 0 -6.354 6.64c-3.036 -0.332 -6.07 -0.64 -9.128 -0.926a52.448 52.448 0 0 1 3.534 -7.258Zm-67.098 1.186c-0.072 -0.902 0.048 -3.676 1.66 -2.964 1 0.426 1.566 2.158 1.92 3.082a33.74 33.74 0 0 1 1.566 7.99c0.142 1.374 2.3 1.4 2.158 0a17.458 17.458 0 0 1 1.374 -9.058c0.426 -0.924 1.28 -3.128 2.56 -3.106s1.448 2.3 1.494 3.178c0.214 4.292 -1.778 7.942 -3.532 11.688 -2.2 -0.188 -4.4 -0.378 -6.616 -0.544a35.884 35.884 0 0 1 -2.582 -10.27Z" fill="#1c2733" stroke-width="2"></path><path d="M238.104 232.156c0.354 0.8 1.308 1.276 3.2 2.538 1.256 0.782 2.4 -1.186 1.16 -1.968 -1.8 -1.148 -2.746 -1.854 -3.626 -1.826a0.844 0.844 0 0 0 -0.734 1.256Z" fill="#ffb306" stroke-width="2"></path><path d="M257.356 245.48a22.516 22.516 0 0 0 2.774 2.466c0.854 0.64 1.85 1.874 2.988 1.8a0.832 0.832 0 0 0 0.782 -1.02c-0.166 -1.114 -1.684 -1.872 -2.538 -2.512a14.622 14.622 0 0 0 -3.4 -1.826c-0.582 -0.234 -1.014 0.672 -0.606 1.092Z" fill="#ffb306" stroke-width="2"></path><path d="M146.23 345.724a129.844 129.844 0 0 0 -11.712 9.744c-3 2.6 -5.494 4.854 -8.322 7.682a5.96 5.96 0 0 0 -2.158 2.988 0.74 0.74 0 0 0 0.902 0.9 5.61 5.61 0 0 0 2.6 -1.92c9.104 -9.106 15.298 -12.822 19.56 -18.256 0.482 -0.57 -0.134 -1.638 -0.87 -1.138Z" fill="#ffb306" stroke-width="2"></path><path d="M123.09 367.94a8.612 8.612 0 0 0 -7.658 0.07c-0.734 0.474 -0.544 1.92 0.498 1.826a13.14 13.14 0 0 1 5.358 0c5.432 1.614 7.25 7.8 5.216 12.756a8.52 8.52 0 0 1 -8.89 5.12c-6.972 -0.86 -11.164 -9.8 -5.358 -17.046 0.474 -0.57 -0.142 -1.636 -0.878 -1.114 -7.54 5.286 -3.936 17.782 4.338 20.058a10.832 10.832 0 0 0 12.022 -4.576c3.462 -5.54 1.954 -14.31 -4.648 -17.094Z" fill="#ffb306" stroke-width="2"></path><path d="M191.54 367.086a0.74 0.74 0 0 0 0.9 -0.902c-0.19 -1.256 -1.138 -1.968 -2 -2.844 -2.832 -2.832 -5.424 -5.188 -8.464 -7.824a123.69 123.69 0 0 0 -11.712 -9.744c-0.758 -0.498 -1.352 0.544 -0.878 1.16 4.142 5.28 10.6 9.29 19.4 18.092a6.12 6.12 0 0 0 2.754 2.062Z" fill="#ffb306" stroke-width="2"></path><path d="M205.1 369.504c-0.708 -0.5 -1.35 0.546 -0.876 1.114a11.122 11.122 0 0 1 2.584 9.2 9.628 9.628 0 0 1 -6.496 7.54 8.574 8.574 0 0 1 -9.744 -3.652c-2.776 -4.652 -1.5 -11.4 3.746 -13.61a12.116 12.116 0 0 1 6.234 -0.308c1.02 0.096 1.234 -1.328 0.498 -1.826 -3.864 -2.512 -9.578 0.024 -12 3.414a12.708 12.708 0 0 0 -1.068 12.164 10.702 10.702 0 0 0 11.074 6.306c10.136 -1.214 13.666 -14.97 6.048 -20.342Z" fill="#ffb306" stroke-width="2"></path><path d="M287.8 125.252a1.044 1.044 0 0 0 0 2.086 1.044 1.044 0 0 0 0 -2.086Z" fill="#1c2733" stroke-width="2"></path><path d="M285.712 133.146a0.8 0.8 0 0 0 -0.664 0.38 2.456 2.456 0 0 1 -1.778 1.304c-0.782 0.048 -1.09 -0.498 -1.516 -1.044a0.546 0.546 0 0 0 -0.926 0.38 2.292 2.292 0 0 0 2.3 2.158 3.954 3.954 0 0 0 3.248 -2.04 0.76 0.76 0 0 0 -0.664 -1.138Z" fill="#1c2733" stroke-width="2"></path><path d="M250.054 234.646c-0.83 -0.012 -1.186 0.616 -1.566 1.28a23.184 23.184 0 0 0 -3 9.246c-0.072 0.64 0.924 0.736 1.09 0.142a40.23 40.23 0 0 1 3.154 -8.25c0.332 -0.616 0.9 -1.186 0.854 -1.896a0.528 0.528 0 0 0 -0.532 -0.522Z" fill="#1c2733" stroke-width="2"></path><path d="M250.528 247.946c2.538 -9.032 3.464 -8.774 3.13 -10.146a0.6 0.6 0 0 0 -0.878 -0.356c-0.758 0.378 -0.972 1.114 -1.28 1.848a28.768 28.768 0 0 0 -2.2 8.488c-0.1 0.712 1.042 0.832 1.228 0.166Z" fill="#1c2733" stroke-width="2"></path><path d="M363.384 384.584c-7.07 -31.684 -5.8 -32.554 -15.6 -70.962 -7.764 -30.172 -21.59 -83.536 -31.866 -113.354a0.816 0.816 0 0 0 -0.4 -0.474c1.634 -0.096 3.27 -0.166 4.906 -0.262a1.026 1.026 0 0 0 1.02 -1.02c-0.524 -6.524 -1.95 -11.548 -4.694 -24.61 0.752 -2.53 1.246 -6.416 -0.924 -7.918 1.47 -3.652 1.588 -8.37 -1.922 -10.67a10.66 10.66 0 0 0 -0.308 -11 9.156 9.156 0 0 0 1.542 -11.5 7.052 7.052 0 0 0 1.47 -1.682 8.962 8.962 0 0 0 3.224 2.228 10.362 10.362 0 0 0 2 11.4 7.978 7.978 0 0 0 -0.024 11.286 7.646 7.646 0 0 0 -0.758 10.336 7.4 7.4 0 0 0 -1.092 8.584 6.258 6.258 0 0 0 1.21 9.222 16.064 16.064 0 0 0 -0.782 5.216 1.138 1.138 0 0 0 1.138 1.138c1.35 -0.07 2.702 -0.166 4.054 -0.236a1.146 1.146 0 0 0 1.09 -1.424 233.66 233.66 0 0 0 -1.304 -3.768 4.07 4.07 0 0 1 -0.474 -2.016c0.118 -0.546 0.498 -1.02 0.616 -1.564a6.642 6.642 0 0 0 -1.518 -5.028 7.102 7.102 0 0 0 1.068 -9.246 8.72 8.72 0 0 0 1.066 -9.46 5.654 5.654 0 0 1 -0.496 -0.734c-0.024 -0.238 0.52 -0.854 0.64 -1.092a10.156 10.156 0 0 0 -0.166 -9.484 2.904 2.904 0 0 1 -0.57 -1.232 3.8 3.8 0 0 1 0.308 -1.234 12 12 0 0 0 -0.474 -7.658 15.908 15.908 0 0 0 -1.2 -2.252c-0.642 -1.02 -0.38 -1.73 -0.31 -2.868a8.082 8.082 0 0 0 -0.45 -3.106 9.656 9.656 0 0 0 4.672 4.434 10.986 10.986 0 0 0 2.75 12 12.642 12.642 0 0 0 3.272 12.258 8.132 8.132 0 0 0 0.102 10.768 8.242 8.242 0 0 0 0 7.232c0.988 1.898 1.88 1.888 1.564 4.102 -0.308 1.896 -0.64 3.768 -0.948 5.666a1.2 1.2 0 0 0 1.138 1.494 26.2 26.2 0 0 0 5.904 -1 1.2 1.2 0 0 0 0.712 -1.732c-1.02 -1.872 -2.04 -3.722 -3.06 -5.6a7.68 7.68 0 0 0 -0.6 -10.4 8.328 8.328 0 0 0 -0.38 -10.1 10 10 0 0 0 -3.816 -13.49 9.788 9.788 0 0 0 -3.106 -12.968c1.114 -4.126 -1.59 -8.11 -5.17 -10.078 -0.52 -0.284 -0.782 -0.378 -0.9 -0.972 -0.094 -0.474 -0.094 -0.972 -0.238 -1.47a6.454 6.454 0 0 0 -6.092 -4.552 4.8 4.8 0 0 0 -8.986 0.926 2.31 2.31 0 0 0 -1.422 0.45 1.646 1.646 0 0 0 -2.656 0.8 1.64 1.64 0 0 0 -1.044 -1.826 3.96 3.96 0 0 0 -3.152 -0.166 5.012 5.012 0 0 0 -5.122 -0.664 5.362 5.362 0 0 0 -6.924 0.878 5.066 5.066 0 0 0 -5.642 4.622v0.12a1.4 1.4 0 0 0 0.57 1.54c0.972 0.64 2.654 0 3.58 -0.4a8.856 8.856 0 0 0 2.726 -1.8 7.026 7.026 0 0 0 5.926 -0.64c0.678 0.678 0.706 0.382 0.428 0.522 -1.422 0.472 -1.708 1.316 -2.228 1.706 0 -0.2 -1.306 -0.138 -2.324 0.426a4 4 0 0 0 -1.8 2.442 0.748 0.748 0 0 0 0.166 0.688 1.67 1.67 0 0 0 0.664 1.258c1.826 1.374 3.982 -0.618 5.334 -1.874a5.016 5.016 0 0 0 2.822 -0.238 4.414 4.414 0 0 0 1.826 -1.374 4.8 4.8 0 0 0 1.564 0.166 5.362 5.362 0 0 0 -0.214 0.878 5.326 5.326 0 0 0 -4.338 3.58c-1.754 0.284 -3.746 1.446 -3.818 3.342a0.47 0.47 0 0 0 0.072 0.26c-0.234 2.492 3.4 4.16 6.07 -0.8a5.186 5.186 0 0 0 3.774 -2.754 3.568 3.568 0 0 0 0.142 1 4.116 4.116 0 0 0 -2.42 4c-1.634 0.426 -3.436 1.54 -3.484 3.176a2.73 2.73 0 0 0 -1.588 -0.6c-0.6 -0.048 -0.6 0.782 -0.142 0.972a2.036 2.036 0 0 1 0.616 3.272c-0.356 0.426 -2.562 1.872 -2.538 0.6a0.938 0.938 0 0 0 -1.73 -0.474 1.734 1.734 0 0 0 0.426 2.4v0.024a7.068 7.068 0 0 0 0.854 4.672c-2.94 1.382 -5.3 4.362 -10.692 2.014a7.642 7.642 0 0 0 -0.024 -4.932 17.722 17.722 0 0 0 4.22 -0.212 5.21 5.21 0 0 0 3.176 -1.162 0.77 0.77 0 0 0 -0.734 -1.28c-0.972 0.19 -1.874 0.6 -2.868 0.734 -3.176 0.418 -6.4 0.36 -7.968 -2.466a8.848 8.848 0 0 1 -0.498 -6.234c0.144 -0.688 0.546 -1.494 0.262 -2.2 -0.228 -0.552 -0.644 -0.758 -1.09 -1.54a8.698 8.698 0 0 0 7.4 -5.692 0.584 0.584 0 0 0 -1.066 -0.45 8.216 8.216 0 0 1 -7.658 4.386 0.9 0.9 0 0 0 -0.854 1.138 8.33 8.33 0 0 0 0.664 1.494c0.214 0.38 0.8 0.902 0.9 1.328 0.126 0.664 -0.574 1.49 -0.664 3.77a7.382 7.382 0 0 0 5.524 8.226c-0.158 0.474 0.188 1.732 0.096 2.918 -0.048 0.474 -0.214 0.972 -0.308 1.446 -0.262 -0.142 -0.522 -0.308 -0.782 -0.452a0.612 0.612 0 0 0 -0.83 0.83c2.2 3.438 7.372 4.056 10.882 2.466 2.252 -1.02 3.864 -2.8 6.496 -2.8a10.96 10.96 0 0 1 9.176 5.88 6.706 6.706 0 0 0 1.66 3.248c0.166 0.38 0.332 0.784 0.474 1.186a23.972 23.972 0 0 1 -0.736 2.49 9.296 9.296 0 0 0 2.23 7.894c0.332 0.6 0 0.854 -0.332 1.328a9.972 9.972 0 0 0 -1 9.556 5.53 5.53 0 0 0 -2.442 4.788 9.6 9.6 0 0 1 -0.024 3.936 8.272 8.272 0 0 0 -0.926 3.652 1.18 1.18 0 0 0 1.116 1.114c1.35 0.166 2.678 0.308 4.03 0.474a1.088 1.088 0 0 0 1.044 -1.374 26.38 26.38 0 0 1 -0.83 -4.032 6.074 6.074 0 0 0 1.848 -7 18.588 18.588 0 0 0 1.282 -2.038 184.086 184.086 0 0 1 3.934 20.366c-18.414 0.908 -18.256 0.784 -21.076 1.232 -0.2 0.034 -1.622 0.964 -1.732 1.732a85.104 85.104 0 0 0 -0.308 15.932c2.45 43.56 14.8 74.056 16.17 116.032a237.246 237.246 0 0 1 -2.086 39.31c-0.166 2.254 3.39 2.68 3.912 0.522 2.226 -9.02 2.784 -25.812 2.632 -35.066 -0.6 -42.364 -13.162 -75.17 -16.882 -118.6 -0.522 -6.022 -0.734 -12.044 -1.328 -18.042 1.258 0.072 2.538 0.048 3.818 0 0.652 9.848 4.754 33.026 6.094 40.234 8.61 47.4 13.44 54.84 18.042 75.586 1.252 5.692 5.374 25.31 6.496 33.43 1.328 9.744 1.09 19.56 1.896 29.352a2.2 2.2 0 0 0 2.134 2.134 2.154 2.154 0 0 0 2.134 -2.134c-1.06 -26.226 -0.724 -27.308 -7.538 -59.368 -5.632 -26.504 -9.176 -27.964 -18.116 -74.732 -4.742 -24.904 -5.6 -34.046 -8.32 -44.692 0.8 -0.046 1.588 -0.118 2.37 -0.166 -1.45 6.526 33.516 102.08 44.218 181.162 0.308 2.3 4.386 1.78 4.078 -0.544 -7.044 -54.4 -23.874 -108.986 -39.5 -162.386a177.322 177.322 0 0 0 -6 -18.4l4.172 -0.212a0.74 0.74 0 0 0 -0.308 0.876c40.2 136.436 39.6 151.496 46.778 183.106 -25.454 0.418 -47.448 -10.262 -63.968 -12.328 5.292 -38.24 0.336 -81.59 -3.224 -128.742 -1.862 -24.502 -1.04 -23.44 -1.824 -35.824a1.128 1.128 0 0 0 -0.76 -1.044c6.352 -8.574 16.658 -22.232 18 -32.978 0.142 -1.02 -1.446 -1.138 -1.732 -0.238 -5.246 15.928 -5.888 15.892 -35.942 56.522a35.974 35.974 0 0 0 -9.91 -5.6c7.538 -14.6 15.054 -29.282 21.456 -44.456a112.138 112.138 0 0 0 4.956 -13.276c0.212 -0.64 -0.854 -1.114 -1.138 -0.474 -11.978 27.948 -18.342 39.768 -27.74 58.254a1.068 1.068 0 0 0 0.64 1.564c0.378 0.118 0.782 0.26 1.162 0.4a29.658 29.658 0 0 1 -2.04 3.034 11.8 11.8 0 0 0 -6.046 -1.92c-3.458 0.114 -7.316 2.55 -9.412 8.036a23.672 23.672 0 0 0 -1.044 3.558c-0.236 1.042 -0.876 2.536 -0.212 3.46a0.732 0.732 0 0 0 0.972 0.262c0.876 -0.522 0.852 -1.446 1.042 -2.372a17.296 17.296 0 0 1 3.6 -8.298 7.938 7.938 0 0 1 4.648 -2.6 11.038 11.038 0 0 1 6.164 1.708 0.878 0.878 0 0 0 1.162 -0.308 25.082 25.082 0 0 0 2.442 -4.032 34.182 34.182 0 0 1 6.97 3.912 17.516 17.516 0 0 0 -1.684 5.216 36.92 36.92 0 0 1 -1.824 5.24c-1.922 4.032 -6.046 1.898 -8.844 0.12a0.886 0.886 0 0 0 -1.21 0.308 22.2 22.2 0 0 0 -2.8 7.516 0.542 0.542 0 0 0 1.044 0.284 58.518 58.518 0 0 1 2.8 -6.094 10.676 10.676 0 0 0 4.836 2.11 5.446 5.446 0 0 0 5.05 -1.968 18.524 18.524 0 0 0 2.418 -5.738 32.856 32.856 0 0 0 1.47 -6.022c0.166 0.12 0.308 0.262 0.474 0.38a1.06 1.06 0 0 0 1.636 -0.214c1.02 -1.4 2.04 -2.8 3.06 -4.172v0.048c-0.688 4.29 -0.972 8.582 -1.328 12.898 -0.356 4.432 -2.04 31.224 -2.514 40.186 -2.102 40.83 -0.4 59.102 -6.33 83.742a2.326 2.326 0 0 0 -0.048 0.378 27 27 0 0 0 -3.366 0.024 260.768 260.768 0 0 0 5.168 -46.232c0.986 -28.868 -0.308 -38.902 2.822 -75.23 0.07 -0.734 -1.162 -0.9 -1.28 -0.166 -6.222 36.292 0.662 79.724 -9 122.506a0.936 0.936 0 0 0 0.262 0.948c-1.566 0.214 -3.13 0.64 -4.672 0.924 -6.618 1.182 -11.508 0.448 -14.154 4.316a4.848 4.848 0 0 0 1.4 7.088 14.96 14.96 0 0 0 9.65 1.946 74.15 74.15 0 0 1 9.034 -1.376 6.748 6.748 0 0 0 2.844 0c0.308 -0.142 0.616 -0.546 0.356 -0.878 -1.578 -2.14 -7.23 -0.586 -10.526 0.024a16.692 16.692 0 0 1 -6.142 0.166 8.754 8.754 0 0 1 -5.144 -2.4 3.298 3.298 0 0 1 0.878 -4.338 9.52 9.52 0 0 1 5.4 -1.85 54.132 54.132 0 0 0 12.212 -2.442 0.672 0.672 0 0 0 0.236 -0.948c7 -1 14.044 2.288 19.8 2.702 0.948 0.072 1.066 -1.352 0.212 -1.612a97 97 0 0 0 -12.304 -2.822c4.694 -17.616 4.954 -36.086 5.382 -54.2 0.94 -39.17 4.258 -71.4 3.698 -83.078a1.436 1.436 0 0 0 -1.944 -1.162c2.134 -2.916 4.292 -5.832 6.426 -8.748 -2.266 11.632 -1.884 42.416 -1.85 56.45 0.088 24.132 0.116 50.282 -3.532 74.33 -1.566 10.31 -2.3 12.33 -2.68 15.932 -0.214 2.04 2.8 2.182 3.39 0.45a50.856 50.856 0 0 0 1.684 -7c7.518 -38.36 4.118 -77.526 5.6 -133.458 0.094 -2.704 -0.072 -5.336 -0.19 -8.014a1.102 1.102 0 0 0 -0.758 -0.972c1.754 -2.372 3.484 -4.742 5.238 -7.114a127.24 127.24 0 0 0 -0.236 8.464 1.022 1.022 0 0 0 -1.47 0.784c-4.88 41.286 3 104.664 -2.988 155.4 -0.094 0.8 0.83 1.28 1.494 1.138 15.72 -3.444 43.51 12.968 75.894 11.95a1.058 1.058 0 0 0 1.078 -1.294Zm-66.6 -240.318a7.1 7.1 0 0 1 -1.2 -3.58 4.42 4.42 0 0 0 4.766 -4.15 0.47 0.47 0 0 0 0.142 0.096c1.538 0.786 4.536 -0.6 5.31 -3.556a4.34 4.34 0 0 0 3.154 -5.478 6.892 6.892 0 0 0 0.972 -2.844 3.114 3.114 0 0 0 1.352 0.354 7.766 7.766 0 0 0 0.142 6.378 12.222 12.222 0 0 0 -2.348 10.836c0.238 0.924 0.854 1.754 0.356 2.632a11.332 11.332 0 0 0 -1.494 3.508 11.754 11.754 0 0 0 -11.152 -4.196Zm-9.294 227.088c3.972 -41.532 0.674 -80.332 1.044 -120.016 0.094 -9.438 0.546 -18.826 1.044 -28.214 1.232 54.494 10.156 97.566 3.532 148.016a26.08 26.08 0 0 0 -5.62 0.214Z" fill="#1c2733" stroke-width="2"></path><path d="M313.524 378.704c-0.55 -0.518 -1.66 -0.024 -1.376 0.8a4.2 4.2 0 0 1 -0.948 4.908c-3.108 2.728 -9.33 1.162 -14.178 0.568 -9.698 -1.178 -14.654 2.37 -22.69 1.85 -1.968 -0.142 -5.454 -0.522 -6.472 -2.538 -1.068 -2.11 1.304 -4.054 3.034 -4.646 3.906 -1.328 10.838 -0.68 14.984 -3.676 0.64 -0.45 0.284 -1.658 -0.568 -1.374a40.75 40.75 0 0 1 -8.346 2.134 24.6 24.6 0 0 0 -7.848 1.54 5.786 5.786 0 0 0 -3.462 5.216c0.096 2.514 2.276 3.866 4.41 4.552 8.6 2.776 16.424 -2.374 26.744 -1.114 5.22 0.652 12.852 2.656 16.4 -1.778 1.406 -1.724 2.126 -4.746 0.316 -6.442Z" fill="#1c2733" stroke-width="2"></path><path d="M254.25 30.4a98.486 98.486 0 0 0 -6.6 -11.214c-2 -3 -1.104 -2.35 -4.576 -2.964 -2.182 -0.426 -24.35 -5.286 -26.532 -5.76 -2.6 -0.548 -1.6 -0.894 -6.258 0.758q-7.078 2.418 -13.918 5.4a0.846 0.846 0 0 0 -0.474 1.09c-2.416 11.442 -3.938 21.574 -9.492 43.17a0.988 0.988 0 0 0 0.688 1.21q27.954 7.752 56.334 13.68a0.916 0.916 0 0 0 1.09 -0.616c0.568 -2.276 0.948 -4.6 1.374 -6.924a8.346 8.346 0 0 0 -0.924 -0.356 9.432 9.432 0 0 1 -6.614 -5.926c-1.2 -2.414 -1.108 -1.58 -2.584 -2.964 -3.478 -3.4 -0.34 -9.576 6.946 -8.274a13.372 13.372 0 0 1 6.094 3.272c0.188 -1.146 3.314 -14.6 5.286 -22.358a1.056 1.056 0 0 0 0.16 -1.224ZM231.56 53.626c-1.2 2.988 -0.384 6.02 -0.782 9.034 -0.288 2.18 -2.584 2.8 -4.504 2.228 -2.538 -0.736 -2.728 -3.13 -2.752 -5.382a27.78 27.78 0 0 1 1.186 -8.82 0.454 0.454 0 0 1 0.878 0.236 39.718 39.718 0 0 0 -0.83 9.01c0.072 1.4 0.142 3.012 1.66 3.58 1.328 0.498 2.892 0.238 3.034 -1.374 0.476 -5.04 -1.4 -6.868 3.296 -13.302 2.68 -3.722 6.568 -9.388 1.47 -13a22.2 22.2 0 0 0 -13.822 -3.226c-4.858 0.354 -7.74 2.436 -14.8 2.088a9.63 9.63 0 0 0 -1.092 2.986c-0.654 3.442 3.104 2.334 7.682 3.842 6.424 2.19 8.056 5.16 11.144 6.876a0.706 0.706 0 0 1 -0.546 1.28 7.76 7.76 0 0 1 -3.106 -1.874 22.962 22.962 0 0 0 -10.812 -5.428c-2 -0.4 -4.788 -0.214 -5.8 -2.372 -0.972 -2.038 0.308 -4.86 1.374 -6.638a0.868 0.868 0 0 1 0.736 -0.426c8.224 0.664 11.61 -2.9 20.32 -1.78 4.646 0.618 11.8 2.68 12.66 8.134 0.898 5.792 -4.696 9.466 -6.594 14.328Zm2.064 -14.214a0.8 0.8 0 1 1 0.768 -0.8 0.756 0.756 0 0 1 -0.768 0.8Zm1.2 1.78a0.616 0.616 0 1 1 -0.6 0.614 0.584 0.584 0 0 1 0.596 -0.606Zm-1.156 3.558a0.716 0.716 0 1 1 -0.716 -0.732 0.704 0.704 0 0 1 0.712 0.732Zm-0.516 -3.05a0.752 0.752 0 1 1 -0.752 -0.782 0.746 0.746 0 0 1 0.748 0.782Zm-1.272 -4.956a19.264 19.264 0 0 0 -1.968 4.838 6.986 6.986 0 0 0 0.356 5c0.378 0.664 -0.546 1.4 -1.068 0.83a6.55 6.55 0 0 1 -0.782 -5.642 8.83 8.83 0 0 1 2.8 -5.692c0.42 -0.306 0.844 0.286 0.658 0.666Zm16.376 -7.136c-4.6 -0.498 -5.304 -0.984 -38.148 -8.18a113.714 113.714 0 0 1 -12.922 -3.058c-0.45 -0.166 -0.4 -0.944 0.118 -0.902 3.856 0.322 3.4 0.344 38.172 7.92 4.292 0.924 8.774 1.588 12.97 2.892 0.706 0.214 0.612 1.422 -0.194 1.32Z" fill="#ffb306" stroke-width="2"></path><path d="M180.112 163.068c-4.56 -16.6 -14.914 -59.6 -16.1 -64.348a2.682 2.682 0 0 0 -0.64 -1.2c-1.896 -1.258 -3.8 -2.514 -5.69 -3.746 -3.924 -2.58 -3.17 -2.576 -12.352 -1.566a16.954 16.954 0 0 0 -0.736 -5.95 27.038 27.038 0 0 0 -1.658 -5.43c-3.158 -6.752 -10.564 -6.116 -13.538 -0.522a8.612 8.612 0 0 0 -3.842 1.754c-3.6 2.94 -4.48 8 -4.48 12.732 -9.962 1.088 -10 0.046 -16.336 4.884a23.176 23.176 0 0 0 -4.428 3.952 4.022 4.022 0 0 0 -1.026 3.304c-0.024 0.64 -1.944 37.034 -2.014 38.2 1.076 1.8 1.098 5.216 1.35 7.064 0.238 1.922 1.874 14.748 2.514 19.94 5.818 -0.416 68.046 -6.2 78.644 -8.44a0.516 0.516 0 0 0 0.332 -0.628ZM130.6 82.456a6 6 0 0 1 4.316 1.328c2.654 2.11 3.58 5.928 4.29 9.152 -1.43 0.118 3.244 -0.294 -9.412 0.972 0.262 -0.508 -0.866 -7.254 0.806 -11.452Zm-2.228 0.546A21 21 0 0 0 128.8 94c-1.516 0.166 -5.216 0.546 -5.524 0.57 0.136 -4.532 0.924 -9.712 5.102 -11.57Zm-26.554 21.4c1.162 -0.83 2.252 -1.848 3.366 -2.726 5.68 -4.474 6.27 -4 11.476 -4.528 1.446 -0.142 2.916 -0.308 4.362 -0.45 0.058 3.668 0.242 5.074 0.284 5.76 -6.83 0.924 -12.556 1.458 -19.482 1.952ZM123.4 102.23a66.776 66.776 0 0 1 -0.166 -5.738c0.232 0 9.232 -0.944 16.36 -1.66 0.356 1.754 0.64 3.51 0.878 5.288 -5.692 0.664 -11.382 1.422 -17.072 2.11Zm12.828 -20.296a8.516 8.516 0 0 0 -4.364 -1.73 5.81 5.81 0 0 1 3.77 -2.276c3.178 -0.45 5.2 2.536 6.07 5.168 1.2 3.6 1.4 7.128 2.348 9.246 -0.854 0.096 -1.732 0.214 -2.584 0.308 -0.88 -3.84 -2.01 -8.188 -5.242 -10.716Zm6.472 17.948a77.74 77.74 0 0 0 -0.854 -5.264c2.6 -0.26 5.2 -0.52 7.8 -0.8a12.694 12.694 0 0 1 3.77 -0.26 10.112 10.112 0 0 1 2.87 1.708 379.78 379.78 0 0 0 4.954 3.176c-6.214 0.208 -12.378 0.758 -18.542 1.44Z" fill="#ffb306" stroke-width="2"></path><path d="M248.158 249.89a64.104 64.104 0 0 0 -1.662 6.244c-23.5 -0.642 -47.03 -0.718 -70.558 -0.554 -23.78 0.19 -99 2.158 -112.832 2.964 -1.162 0.072 -1.186 1.85 0 1.826 39.326 -0.538 97.086 -4.048 182.61 -2.016 -6.366 28.498 -12.2 51.016 -19.11 76.084a8.672 8.672 0 0 1 -0.902 2.774c-0.64 0.854 -2.252 0.57 -3.2 0.57 -9.864 -0.048 -127.8 -1.14 -132.678 -1.234a10.928 10.928 0 0 1 -3.294 -0.214 2.966 2.966 0 0 1 -1.638 -2.062c-1.46 -4.122 -22.03 -69.636 -22.096 -69.848 -0.474 -1.494 -2.822 -0.852 -2.37 0.64 6.022 19.348 19.748 62.8 20.508 65.2 1.552 4.946 1.816 8.51 6.828 8.748 6.914 0.33 134.66 1.114 136.542 1.042a3.902 3.902 0 0 0 3.936 -2.986c6.464 -20.114 18.232 -73.526 22.072 -86.586a1.12 1.12 0 0 0 -2.156 -0.592Z" fill="#ffb306" stroke-width="2"></path><path d="M94.924 305.892c5.432 -3.516 10.764 -7.2 16.146 -10.836a498.886 498.886 0 0 0 12.02 10.22 305.586 305.586 0 0 0 -16.098 12.258c-0.64 0.52 0.238 1.682 0.9 1.162a528.606 528.606 0 0 1 16.716 -12.164 1134.66 1134.66 0 0 0 8.89 7.16 27.186 27.186 0 0 0 5.028 3.534 107.8 107.8 0 0 1 -15.316 10.146c-0.664 0.356 -0.072 1.28 0.568 1a80.946 80.946 0 0 0 14.8 -8.914c4.814 -3.51 14.962 -11 15.246 -11.2 0.8 0.736 1.636 1.448 2.442 2.182a62.63 62.63 0 0 0 10.29 8.464c0.544 0.308 1.374 -0.356 0.924 -0.924 -2.238 -2.97 -4.164 -4.264 -11.784 -11.072 4.4 -3.178 8.868 -6.33 13.35 -9.414q6.436 5.4 12.754 10.978c-6.128 4.58 -12.278 9.308 -18.114 14.108 -0.474 0.378 0.166 1.2 0.664 0.852q9.498 -6.8 18.944 -13.632c1.566 1.4 3.13 2.8 4.672 4.2a26.848 26.848 0 0 0 4.812 4.054 0.786 0.786 0 0 0 1.068 -1.066 21.746 21.746 0 0 0 -3.936 -4c-1.4 -1.258 -4.672 -4.2 -4.908 -4.434q8.142 -5.868 16.312 -11.642c2.11 1.8 9.46 8.038 11.024 9.366 -8.076 6.6 -14.898 11.942 -23.732 18.374 -0.76 0.57 -0.048 1.85 0.758 1.304a439.4 439.4 0 0 0 24.492 -18.4c0.688 0.568 1.374 1.138 2.086 1.684a7.092 7.092 0 0 0 2.702 1.706c0.476 0.094 1.116 -0.332 0.902 -0.9a12.222 12.222 0 0 0 -3.864 -3.936 50.304 50.304 0 0 0 6.544 -5.928c0.45 -0.522 -0.12 -1.422 -0.784 -1.02a66.726 66.726 0 0 0 -7.302 5.644c-1.162 -0.972 -8.416 -7.138 -10.882 -9.248a712.738 712.738 0 0 1 8.464 -5.88 48.438 48.438 0 0 0 7.136 6.142c0.6 0.356 1.422 -0.38 1 -1a39.142 39.142 0 0 0 -5.738 -5.832c-0.2 -0.166 -0.378 -0.356 -0.568 -0.522a84.1 84.1 0 0 0 8.724 -6.6c0.474 -0.426 -0.142 -1.114 -0.664 -0.852a75.536 75.536 0 0 0 -9.744 5.926c-1.4 -1.28 -12.66 -11.546 -16.904 -15.386 -0.8 -0.736 -2 0.45 -1.21 1.2 1.328 1.256 2.656 2.514 3.984 3.8A97.508 97.508 0 0 0 188 282.302c-2.086 -1.826 -13.514 -11.88 -17.188 -15.056 -0.76 -0.664 -1.85 0.4 -1.114 1.114 5.334 5.2 10.81 10.242 16.358 15.222 -4.754 3.126 -9.754 6.34 -16.952 11.332 -6.438 -5.348 -13.112 -10.632 -20.034 -15.624 -0.616 -0.45 -1.422 0.6 -0.83 1.068l6.236 5.096a103.262 103.262 0 0 0 -13.656 7.896c-2.68 -2.49 -10.124 -9.4 -11.144 -10.362 0.2 -0.2 2.034 -1.244 5.904 -3.698a34.116 34.116 0 0 0 5.8 -4 0.658 0.658 0 0 0 -0.64 -1.092c-2.712 0.906 -6.04 3.25 -12.638 7.374 -1.778 -1.636 -3.58 -3.272 -5.382 -4.884a0.754 0.754 0 0 0 -1.066 1.068c1.564 1.658 3.154 3.272 4.742 4.906 -3.106 2 -13.2 8.632 -15.174 9.958 -5.334 -4.6 -10.622 -9.246 -15.908 -13.87 -0.6 -0.496 -1.424 0.31 -0.854 0.854 4.86 4.884 9.91 9.6 15.054 14.178 -5.2 3.534 -10.336 7.138 -15.316 10.978 -0.672 0.44 -0.052 1.64 0.726 1.132Zm44.62 10.338a32.282 32.282 0 0 0 -5.452 -4.718 547.524 547.524 0 0 1 -7.682 -6.236 411.912 411.912 0 0 1 13.918 -9.27c3.958 3.674 7.966 7.278 11.972 10.882 -13.948 10.152 -12.424 9.672 -12.756 9.342ZM198.8 277.512c2.466 2.348 10 9.388 11.31 10.6 -0.71 0.426 -8.336 5.81 -8.536 5.952 -2.028 -1.826 3.22 2.904 -11.83 -10.314 3.076 -1.97 6.158 -3.986 9.056 -6.238Zm-11.072 7.516a921.994 921.994 0 0 0 11.902 10.4c-1.378 1.016 -4.294 2.92 -16.146 11.736a1045.42 1045.42 0 0 0 -12.684 -10.93c12.21 -8.256 13.06 -8.728 16.922 -11.206Zm-32.22 1.232q5.974 4.872 11.878 9.84a638.448 638.448 0 0 0 -13.23 9.436c-1.328 -1.2 -9.2 -8.4 -11.8 -10.788 4.444 -2.968 9.306 -5.404 13.146 -8.488Zm-27.6 -2.18q5.37 5.334 10.906 10.502c-1.568 1.034 -6.346 4.052 -13.942 9.414a1539.204 1539.204 0 0 1 -12.044 -10.148c1.554 -1.018 8.078 -5.324 15.076 -9.768Z" fill="#ffb306" stroke-width="2"></path><path d="M62.726 173.856a20.914 20.914 0 0 0 10.884 -17.57c0.046 -3.982 -1.494 -8.8 2.252 -11.64a16.088 16.088 0 0 1 6.07 -2.562c-0.29 -3.112 -0.678 -4.61 -3.462 -5.4a20.8 20.8 0 0 0 -15.98 1.54c-0.416 0.216 -0.878 0.648 -0.878 1.826 -0.526 6.78 1.504 8.708 -3.532 17.8a18.6 18.6 0 0 1 -6.236 6.638c-2.584 1.708 -5.2 3.39 -7.942 4.836 -2.418 1.28 -5.382 2.182 -6.758 4.766 -1.256 2.4 -0.378 5.312 2.584 5.358a111.01 111.01 0 0 0 11.57 -0.45c2.702 -2.384 7.018 -2.598 11.428 -5.142Z" fill="#1c2733" stroke-width="2"></path><path d="M99.902 181.466c-1 -7.722 -3.4 -27.052 -3.626 -28.972a35.674 35.674 0 0 0 -0.76 -5.526 3.836 3.836 0 0 0 -2.94 -2.442 22.4 22.4 0 0 0 -8.962 -0.71c-2.716 0.532 -6.772 1.658 -7.824 4.22 -1.304 3.298 0.886 6.68 -0.6 12.946a22.412 22.412 0 0 1 -6.52 11.308 28.636 28.636 0 0 1 -11.07 6.212c-3.326 1.078 -4.838 1.422 -6.71 4.126a4.052 4.052 0 0 0 0 2.94 2.976 2.976 0 0 0 3.058 1.682c1.79 0.02 3.678 -0.018 5.618 -0.102a78.484 78.484 0 0 0 -6.946 8.07c-1.516 1.966 -3.556 4.172 -3.4 6.828a19.622 19.622 0 0 0 0.8 3.628c2.832 10.692 5.536 20.416 9.366 32.788 3.884 12.478 4.128 13.49 5.168 15.91 0.4 0.924 1.708 0.236 1.542 -0.64 -0.974 -4.696 -2.764 -9.274 -4.174 -13.822 -1.564 -5.122 -6.462 -21.536 -9.722 -33.91a20.13 20.13 0 0 1 -1.044 -4.2 6.362 6.362 0 0 1 1.66 -3.77 83.23 83.23 0 0 1 9.554 -11.04c5.82 -0.364 11.908 -1.068 17.096 -1.81a5.4 5.4 0 0 0 3.936 -1.66 23.018 23.018 0 0 0 2.4 -5.76c0.426 1.944 0.854 3.864 1.28 5.8a1.316 1.316 0 0 0 1.232 0.948 77.04 77.04 0 0 0 10.624 -1.8 1.334 1.334 0 0 0 0.964 -1.242Zm-12.778 -30.918a23.762 23.762 0 0 1 -5.026 0.166 14.494 14.494 0 0 1 -4.552 -1.184c-0.6 -0.238 -0.6 -1.282 0.166 -1.21a33.784 33.784 0 0 0 12.47 -0.71 10.366 10.366 0 0 1 3.036 -1.092 0.6 0.6 0 0 1 0.6 0.6c-0.008 2.682 -4.798 3.168 -6.694 3.43Z" fill="#1c2733" stroke-width="2"></path><path d="M283.934 118.494c-5.6 -17.126 -14.63 -34.574 -23.78 -52.112a1.034 1.034 0 0 0 -1.162 -0.474 4.4 4.4 0 0 1 -0.498 0.166c0.306 -0.462 -0.104 -4.144 0.072 -6.284a17.816 17.816 0 0 0 0.356 -5.476 12.258 12.258 0 0 0 -6.474 -7.47c-0.972 -0.4 -1.73 1.068 -1 1.732 2.324 2.062 5.738 4.148 5.548 7.728 -0.308 5.366 -0.908 4.852 0.434 10.148 -4.714 1.72 -2.766 0.924 -6.364 2.432a7.13 7.13 0 0 0 -4.55 -4.826 9.27 9.27 0 0 1 -3.8 -1.826c-1.49 -1.612 -1.88 -4.188 -4.2 -5.8 -0.76 -0.546 -1.186 -1 -0.144 -1.542a4.352 4.352 0 0 1 2.632 -0.238c3.72 0.672 6 4.498 8.2 5.858 0.616 0.378 1.47 -0.4 1.042 -1.044a21 21 0 0 0 -4.22 -4.126c-6.768 -5.462 -12.05 -0.732 -9.388 1.874a19.494 19.494 0 0 1 1.73 1.422c1.238 1.414 1.786 3.924 3.582 5.454a15.53 15.53 0 0 0 4.432 1.968 7.076 7.076 0 0 1 3.276 3.42l-0.88 0.372a1.1 1.1 0 0 0 -0.498 1.21c1.896 6.212 4.22 12.306 6.354 18.47 2.4 6.898 4.432 13.916 6.544 20.91 4.504 15.032 8.748 30.136 10.55 45.784 1.708 14.446 0.6 19.886 0.9 27.1 0.024 0.782 1.282 1.042 1.448 0.188a65.982 65.982 0 0 0 0.6 -12.234 167.102 167.102 0 0 0 -4.458 -34.922c-3.18 -14.116 -9.544 -35.554 -12.684 -44.882 -2.252 -6.71 -4.79 -13.326 -6.9 -20.106 2.656 -1.2 5.43 -2.182 8.18 -3.2 11 20.666 16.094 30.86 23.828 50.666 0.272 0.822 1.572 0.516 1.292 -0.34Z" fill="#1c2733" stroke-width="2"></path></svg>